<svg xmlns="http://www.w3.org/2000/svg" viewBox="0 0 800 800"><style>.st0{fill:#006837;} .st1{fill:#009245;} .st2{fill:#42210B;} .st3{fill:#997733;} .st4{fill:#99FF99;} .st5{fill:#CCFFCC;} .st6{fill:#00FF00;} .st7{fill:#FF3333;} .st8{fill:#1C1700;} .st9{fill:#FF0000;} .st10{fill:#330033;} .st11{fill:#660066;} .st12{fill:#330000;} .st13{fill:#663333;} .st14{fill:#FF6DBA;} .st15{fill:#FF99CC;} .st16{fill:#FF00FF;} .st17{fill:#663366;} .st18{fill:#1B0000;} .st19{fill:#CCCC00;} .st20{fill:#FFFF00;} .st21{fill:#CCCCCC;} .st22{fill:#999999;} .st23{fill:#333333;} .st24{fill:#666666;} .st25{fill:#F7931E;} .st26{fill:#F15A24;} .st27{fill:#ED1C24;} .st28{fill:#C1272D;} .st29{fill:#CCCCFF;} .st30{fill:#9999FF;} .st31{fill:#999900;} .st32{fill:#FFFFFF;}</style><g id="Layer_1"><path d="M231 97h325v300H231z"/><path class="st0" d="M206 172h75v150h-75zM531 172h50v150h-50z"/><path class="st1" d="M381 72h75v50h-75z"/><path class="st2" d="M306 197h200v200H306z"/><path class="st3" d="M456 322H356v-25h25v-25h50v25h25z"/><path class="st4" d="M506 297H306V197h200z"/><path class="st5" d="M381 272h125v25H381zM356 247h125v25H356zM331 222h125v25H331zM306 197h125v25H306z"/><path class="st6" d="M356 147h125v75H356z"/><path class="st7" d="M356 347h100v25H356z"/><path class="st8" d="M356 397h75v25h-75z"/><path class="st1" d="M281 572h200v50H281z"/><path d="M256 472h25v75h-25zM281 422v150h175V472h25v-50zM306 672h50v25h-50zM431 672h50v25h-50z"/><path class="st6" d="M306 697h50v25h-50zM431 697h50v25h-50z"/><path d="M306 622h50v25h-50zM431 622h50v25h-50zM331 647h50v25h-50zM456 647h50v25h-50z"/><path class="st6" d="M306 722h50v25h-50zM431 722h50v25h-50zM306 747h75v25h-75zM431 747h75v25h-75z"/><path d="M281 422H181v25h-25v50h50v-25h75z"/><path class="st4" d="M131 497h100v25H131z"/><path class="st1" d="M231 547v-25H131v25h-25v125h25v25h100v-25h25V547z"/><path class="st6" d="M131 622h100v25H131zM156 647h50v25h-50zM156 597h50v25h-50z"/><path class="st0" d="M131 522h100v25H131zM106 547h25v25h-25zM231 547h25v25h-25zM131 547h100v25H131zM106 572h25v25h-25zM231 572h25v25h-25z"/><path d="M481 422h50v50h-50zM481 472h75v50h-75zM556 472h25v50h-25z"/><path class="st4" d="M581 472h25v50h-25z"/><path class="st0" d="M706 547H606v-75h25v-25h50v25h25z"/><path class="st1" d="M681 472h-25v25h-25v25h25v25h50v-75z"/><path class="st6" d="M331 447h100v75H331z"/><path class="st5" d="M356 472h50v25h-50z"/></g></svg>