<svg xmlns="http://www.w3.org/2000/svg" viewBox="0 0 1100 1100"><style>.st0{fill:#006837;} .st1{fill:#009245;} .st2{fill:#42210B;} .st3{fill:#997733;} .st4{fill:#99FF99;} .st5{fill:#CCFFCC;} .st6{fill:#00FF00;} .st7{fill:#FF3333;} .st8{fill:#1C1700;} .st9{fill:#FF0000;} .st10{fill:#330033;} .st11{fill:#660066;} .st12{fill:#330000;} .st13{fill:#663333;} .st14{fill:#FF6DBA;} .st15{fill:#FF99CC;} .st16{fill:#FF00FF;} .st17{fill:#663366;} .st18{fill:#1B0000;} .st19{fill:#CCCC00;} .st20{fill:#FFFF00;} .st21{fill:#CCCCCC;} .st22{fill:#999999;} .st23{fill:#333333;} .st24{fill:#666666;} .st25{fill:#F7931E;} .st26{fill:#F15A24;} .st27{fill:#ED1C24;} .st28{fill:#C1272D;} .st29{fill:#CCCCFF;} .st30{fill:#9999FF;} .st31{fill:#999900;} .st32{fill:#FFFFFF;}</style><g id="Layer_2"><path class="st19" d="M456.3 775h187.5v37.5H456.3z"/><path class="st20" d="M493.8 775h150v37.5h-150z"/><path class="st19" d="M456.3 737.5h187.5V775H456.3z"/><path class="st20" d="M493.8 737.5h150V775h-150z"/><path class="st19" d="M456.3 700h187.5v37.5H456.3z"/><path class="st20" d="M493.8 700h150v37.5h-150z"/><path class="st19" d="M418.8 662.5h262.5V700H418.8zM381.3 625h337.5v37.5H381.3zM343.8 587.5h412.5V625H343.8zM306.3 550h487.5v37.5H306.3zM268.8 512.5h562.5V550H268.8zM231.3 475h637.5v37.5H231.3z"/><path class="st20" d="M456.3 662.5h225V700h-225zM418.8 625h300v37.5h-300zM381.3 587.5h375V625h-375zM343.8 550h450v37.5h-450zM306.3 512.5h525V550h-525zM268.8 475h600v37.5h-600zM268.8 362.5h600V400h-600zM268.8 400h600v37.5h-600zM268.8 437.5h600V475h-600z"/><path class="st21" d="M493.8 812.5h150v38h-150z"/><path class="st22" d="M455.8 812.5h38v38h-38zM531.3 850h75v75h-75z"/><path d="M455.8 925.5v112h75v-37h-37v-38h37v-37zM531.3 925h37.5v112.5h-37.5z"/><path class="st23" d="M568.8 925h75v112.5h-75z"/><path class="st24" d="M493.8 962.5h37.5v37.5h-37.5zM493.8 850h37.5v75h-37.5z"/><path class="st21" d="M156.3 475h75v37.5h-75zM943.8 475h75v37.5h-75zM156.3 550h75v37.5h-75zM943.8 550h75v37.5h-75zM156.3 625h75v37.5h-75zM943.8 625h75v37.5h-75zM156.3 700h75v37.5h-75zM943.8 700h75v37.5h-75z"/><path class="st22" d="M156.3 512.5h75V550h-75zM943.8 512.5h75V550h-75zM156.3 587.5h75V625h-75zM943.8 587.5h75V625h-75zM156.3 662.5h75V700h-75zM943.8 662.5h75V700h-75zM156.3 737.5h75V775h-75z"/><path class="st24" d="M118.8 737.5h37.5V775h-37.5zM118.8 662.5h37.5V700h-37.5zM118.8 587.5h37.5V625h-37.5zM118.8 512.5h37.5V550h-37.5z"/><path class="st22" d="M118.8 700h37.5v37.5h-37.5zM118.8 625h37.5v37.5h-37.5zM118.8 550h37.5v37.5h-37.5zM118.8 475h37.5v37.5h-37.5z"/><path class="st24" d="M906.3 737.5h37.5V775h-37.5zM906.3 662.5h37.5V700h-37.5zM906.3 587.5h37.5V625h-37.5zM906.3 512.5h37.5V550h-37.5z"/><path class="st22" d="M906.3 700h37.5v37.5h-37.5zM906.3 625h37.5v37.5h-37.5zM906.3 550h37.5v37.5h-37.5zM906.3 475h37.5v37.5h-37.5zM943.8 737.5h75V775h-75z"/><path class="st25" d="M81.3 362.5h187.5V475H81.3zM868.8 362.5h187.5V475H868.8z"/><path class="st26" d="M43.8 362.5h37.5V475H43.8zM118.8 400h112.5v37.5H118.8zM906.3 400h112.5v37.5H906.3z"/><path class="st25" d="M718.8 587.5v-75h-38v-37h-37v-38h-38v-37h-75v37h-37v38h-38v37h-37v75z"/><path class="st26" d="M568.8 475.5h-38v37h-37v38h150v-38h-38v-37z"/><path class="st27" d="M155.8 850.5h-37v-75h150v75h-38v37h-75z"/><path class="st28" d="M81.3 775h37.5v75H81.3zM118.8 850h37.5v37.5h-37.5z"/><path class="st27" d="M943.8 850.5h-38v-75h150v75h-37v37h-75z"/><path class="st28" d="M868.8 775h37.5v75h-37.5zM906.3 850h37.5v37.5h-37.5z"/><path class="st22" d="M381.3 250h375v75h-375z"/><path class="st24" d="M343.8 250h37.5v75h-37.5z"/><path class="st29" d="M456.3 137.5h225V250h-225z"/><path class="st30" d="M418.8 137.5h37.5V250h-37.5z"/><path class="st20" d="M418.8 100h300v37.5h-300zM456.3 62.5h225V100h-225z"/><path class="st19" d="M418.8 62.5h37.5V100h-37.5zM381.3 100h37.5v37.5h-37.5zM493.8 325h150v37.5h-150z"/><path class="st31" d="M456.3 325h37.5v37.5h-37.5z"/><path class="st32" d="M456.3 137.5h150V175h-150zM493.8 175h150v37.5h-150zM531.3 212.5h150V250h-150z"/></g></svg>